<?xml version="1.0" encoding="utf-8"?>
<!-- Generator: Adobe Illustrator 18.1.1, SVG Export Plug-In . SVG Version: 6.00 Build 0)  -->
<svg version="1.1" id="Layer_1" xmlns="http://www.w3.org/2000/svg" xmlns:xlink="http://www.w3.org/1999/xlink" x="0px" y="0px"
	 viewBox="0 0 11.9 6.8" enable-background="new 0 0 11.9 6.8" xml:space="preserve">
<g>
	<g>
		<path fill="#FFFFFF" d="M11.7,0.2c-0.3-0.3-0.8-0.3-1,0L6,5L1.3,0.2c-0.3-0.3-0.8-0.3-1,0c-0.3,0.3-0.3,0.8,0,1.1l5.2,5.2
			c0,0,0,0.1,0.1,0.1C5.6,6.8,5.8,6.8,6,6.8c0.2,0,0.4-0.1,0.5-0.2c0,0,0-0.1,0.1-0.1l5.2-5.2C12,1,12,0.5,11.7,0.2z"/>
	</g>
</g>
</svg>
